<svg width="60" height="60" viewBox="0 0 60 60" fill="none" xmlns="http://www.w3.org/2000/svg">
<path opacity="0.21" fill-rule="evenodd" clip-rule="evenodd" d="M0 30V37C0 49.7025 10.2975 60 23 60H30H37C49.7025 60 60 49.7025 60 37V30V23C60 10.2975 49.7025 0 37 0H30H23C10.2975 0 0 10.2975 0 23V30Z" fill="#5D1B21"/>
<path d="M30 18L20 22.3636V28.9091C20 34.9636 24.2667 40.6255 30 42C35.7333 40.6255 40 34.9636 40 28.9091V22.3636L30 18ZM30 22.2545C30.6593 22.2545 31.3037 22.4465 31.8519 22.8061C32.4001 23.1657 32.8273 23.6768 33.0796 24.2749C33.3319 24.8729 33.3979 25.5309 33.2693 26.1657C33.1407 26.8006 32.8232 27.3837 32.357 27.8414C31.8908 28.2991 31.2969 28.6108 30.6503 28.7371C30.0037 28.8634 29.3335 28.7986 28.7244 28.5509C28.1153 28.3032 27.5947 27.8837 27.2284 27.3455C26.8622 26.8073 26.6667 26.1746 26.6667 25.5273C26.6667 24.6593 27.0179 23.8269 27.643 23.2131C28.2681 22.5993 29.1159 22.2545 30 22.2545ZM30 30.8727C32.2222 30.8727 36.6667 32.0618 36.6667 34.2327C35.9369 35.3129 34.9463 36.1989 33.783 36.8118C32.6198 37.4247 31.3202 37.7455 30 37.7455C28.6798 37.7455 27.3802 37.4247 26.217 36.8118C25.0537 36.1989 24.0631 35.3129 23.3333 34.2327C23.3333 32.0618 27.7778 30.8727 30 30.8727Z" fill="#5D1B21"/>
</svg>
