<svg width="60" height="60" viewBox="0 0 60 60" fill="none" xmlns="http://www.w3.org/2000/svg">
<path opacity="0.21" fill-rule="evenodd" clip-rule="evenodd" d="M0 30V37C0 49.7025 10.2975 60 23 60H30H37C49.7025 60 60 49.7025 60 37V30V23C60 10.2975 49.7025 0 37 0H30H23C10.2975 0 0 10.2975 0 23V30Z" fill="#08224A"/>
<path d="M30 38.75C28.2898 37.7626 26.3498 37.2428 24.375 37.2428C22.4002 37.2428 20.4602 37.7626 18.75 38.75V22.5C20.4602 21.5126 22.4002 20.9928 24.375 20.9928C26.3498 20.9928 28.2898 21.5126 30 22.5M30 38.75C31.7102 37.7626 33.6502 37.2428 35.625 37.2428C37.5998 37.2428 39.5398 37.7626 41.25 38.75V22.5C39.5398 21.5126 37.5998 20.9928 35.625 20.9928C33.6502 20.9928 31.7102 21.5126 30 22.5M30 38.75V22.5" stroke="#08224A" stroke-width="2" stroke-linecap="round" stroke-linejoin="round"/>
</svg>
