<svg width="60" height="60" viewBox="0 0 60 60" fill="none" xmlns="http://www.w3.org/2000/svg">
<path fill-rule="evenodd" clip-rule="evenodd" d="M19.3335 25.6666C19.3335 24.0753 19.9656 22.5492 21.0909 21.424C22.2161 20.2988 23.7422 19.6666 25.3335 19.6666H38.6668C39.1973 19.6666 39.706 19.8773 40.081 20.2524C40.4561 20.6275 40.6668 21.1362 40.6668 21.6666V41.6666C40.6668 42.0202 40.5264 42.3594 40.2763 42.6094C40.0263 42.8595 39.6871 43 39.3335 43H24.0002C22.8778 43.0002 21.7929 42.596 20.9444 41.8613C20.0958 41.1267 19.5405 40.1108 19.3802 39H19.3335V25.6666ZM38.6668 35.6666H24.0002C23.2929 35.6666 22.6146 35.9476 22.1145 36.4477C21.6144 36.9478 21.3335 37.626 21.3335 38.3333C21.3335 39.0405 21.6144 39.7188 22.1145 40.2189C22.6146 40.719 23.2929 41 24.0002 41H38.6668V35.6666ZM25.0002 25.6666C25.0002 25.4014 25.1055 25.1471 25.2931 24.9595C25.4806 24.772 25.7349 24.6666 26.0002 24.6666H35.3335C35.5987 24.6666 35.8531 24.772 36.0406 24.9595C36.2281 25.1471 36.3335 25.4014 36.3335 25.6666C36.3335 25.9318 36.2281 26.1862 36.0406 26.3737C35.8531 26.5613 35.5987 26.6666 35.3335 26.6666H26.0002C25.7349 26.6666 25.4806 26.5613 25.2931 26.3737C25.1055 26.1862 25.0002 25.9318 25.0002 25.6666ZM26.0002 28.6666C25.7349 28.6666 25.4806 28.772 25.2931 28.9595C25.1055 29.1471 25.0002 29.4014 25.0002 29.6666C25.0002 29.9318 25.1055 30.1862 25.2931 30.3737C25.4806 30.5613 25.7349 30.6666 26.0002 30.6666H32.6668C32.932 30.6666 33.1864 30.5613 33.3739 30.3737C33.5615 30.1862 33.6668 29.9318 33.6668 29.6666C33.6668 29.4014 33.5615 29.1471 33.3739 28.9595C33.1864 28.772 32.932 28.6666 32.6668 28.6666H26.0002Z" fill="#45322E"/>
<path opacity="0.21" fill-rule="evenodd" clip-rule="evenodd" d="M0 30V37C0 49.7025 10.2975 60 23 60H30H37C49.7025 60 60 49.7025 60 37V30V23C60 10.2975 49.7025 0 37 0H30H23C10.2975 0 0 10.2975 0 23V30Z" fill="#45322E"/>
</svg>
