<svg width="17" height="16" viewBox="0 0 17 16" fill="none" xmlns="http://www.w3.org/2000/svg">
<path d="M8.25 15C8.25 14.8011 8.32902 14.6103 8.46967 14.4697C8.61032 14.329 8.80109 14.25 9 14.25H15C15.0663 14.25 15.1299 14.2237 15.1768 14.1768C15.2237 14.1299 15.25 14.0663 15.25 14V2C15.25 1.9337 15.2237 1.87011 15.1768 1.82322C15.1299 1.77634 15.0663 1.75 15 1.75H9C8.80109 1.75 8.61032 1.67098 8.46967 1.53033C8.32902 1.38968 8.25 1.19891 8.25 1C8.25 0.801088 8.32902 0.610322 8.46967 0.46967C8.61032 0.329018 8.80109 0.25 9 0.25H15C15.966 0.25 16.75 1.034 16.75 2V14C16.75 14.4641 16.5656 14.9092 16.2374 15.2374C15.9092 15.5656 15.4641 15.75 15 15.75H9C8.80109 15.75 8.61032 15.671 8.46967 15.5303C8.32902 15.3897 8.25 15.1989 8.25 15Z" fill="#8C6051"/>
<path d="M12.612 9.11502C12.612 9.38023 12.5066 9.63459 12.3191 9.82212C12.1316 10.0097 11.8772 10.115 11.612 10.115H6.75599C6.73265 10.4703 6.70399 10.8257 6.66999 11.181L6.63999 11.486C6.62882 11.601 6.59008 11.7115 6.52707 11.8083C6.46406 11.9051 6.37863 11.9852 6.27803 12.042C6.17743 12.0987 6.06463 12.1303 5.9492 12.1342C5.83378 12.138 5.71913 12.1139 5.61499 12.064C3.78647 11.1887 2.13146 9.98975 0.729987 8.52501L0.699987 8.49402C0.571043 8.35989 0.499023 8.18107 0.499023 7.99502C0.499023 7.80896 0.571043 7.63014 0.699987 7.49602L0.729987 7.46502C2.13146 6.00028 3.78647 4.80129 5.61499 3.92602C5.71913 3.87609 5.83378 3.85203 5.9492 3.85587C6.06463 3.8597 6.17743 3.89133 6.27803 3.94805C6.37863 4.00478 6.46406 4.08494 6.52707 4.18172C6.59008 4.27851 6.62882 4.38907 6.63999 4.50402L6.66999 4.80902C6.70399 5.16368 6.73265 5.51902 6.75599 5.87502H11.612C11.8772 5.87502 12.1316 5.98037 12.3191 6.16791C12.5066 6.35545 12.612 6.6098 12.612 6.87502V9.11502Z" fill="#8C6051"/>
</svg>
