<svg width="60" height="60" viewBox="0 0 60 60" fill="none" xmlns="http://www.w3.org/2000/svg">
<path opacity="0.21" fill-rule="evenodd" clip-rule="evenodd" d="M0 30V37C0 49.7025 10.2975 60 23 60H30H37C49.7025 60 60 49.7025 60 37V30V23C60 10.2975 49.7025 0 37 0H30H23C10.2975 0 0 10.2975 0 23V30Z" fill="#5B7B7A"/>
<path fill-rule="evenodd" clip-rule="evenodd" d="M29.1552 19.8535C28.6627 19.8535 28.1903 20.0491 27.842 20.3974C27.4937 20.7457 27.2981 21.2181 27.2981 21.7106C27.2981 22.2032 27.4937 22.6755 27.842 23.0238C28.1903 23.3721 28.6627 23.5678 29.1552 23.5678H34.2215C35.5041 23.5927 36.7257 24.1198 37.6239 25.0356C38.5221 25.9515 39.0252 27.1832 39.0252 28.466C39.0252 29.7488 38.5221 30.9804 37.6239 31.8963C36.7257 32.8122 35.5041 33.3392 34.2215 33.3642H25.9461V30.155C25.946 29.7878 25.837 29.4288 25.6329 29.1235C25.4289 28.8181 25.1389 28.5802 24.7996 28.4396C24.4603 28.2991 24.0869 28.2623 23.7267 28.334C23.3665 28.4056 23.0356 28.5824 22.7759 28.842L17.7133 33.9046C17.4525 34.1637 17.2745 34.4944 17.2017 34.8547C17.129 35.2151 17.1649 35.5889 17.3048 35.9289C17.3952 36.1518 17.5301 36.3542 17.7096 36.5362L22.7759 41.6025C23.0356 41.8621 23.3665 42.0389 23.7267 42.1105C24.0869 42.1822 24.4603 42.1454 24.7996 42.0049C25.1389 41.8643 25.4289 41.6264 25.6329 41.321C25.837 41.0157 25.946 40.6567 25.9461 40.2895V37.0785H34.2215C35.3631 37.0952 36.4967 36.8848 37.5563 36.4596C38.6159 36.0343 39.5804 35.4025 40.3937 34.6011C41.2069 33.7997 41.8528 32.8446 42.2936 31.7914C42.7344 30.7381 42.9614 29.6077 42.9614 28.466C42.9614 27.3242 42.7344 26.1938 42.2936 25.1406C41.8528 24.0873 41.2069 23.1322 40.3937 22.3308C39.5804 21.5294 38.6159 20.8977 37.5563 20.4724C36.4967 20.0471 35.3631 19.8367 34.2215 19.8535H29.1552Z" fill="#5B7B7A"/>
</svg>
