<svg width="60" height="60" viewBox="0 0 60 60" fill="none" xmlns="http://www.w3.org/2000/svg">
<path opacity="0.21" fill-rule="evenodd" clip-rule="evenodd" d="M0 30V37C0 49.7025 10.2975 60 23 60H30H37C49.7025 60 60 49.7025 60 37V30V23C60 10.2975 49.7025 0 37 0H30H23C10.2975 0 0 10.2975 0 23V30Z" fill="#5B7B7A"/>
<path opacity="0.587821" fill-rule="evenodd" clip-rule="evenodd" d="M20.6665 23.3333C20.6665 26.2789 23.0543 28.6667 25.9998 28.6667C28.9454 28.6667 31.3332 26.2789 31.3332 23.3333C31.3332 20.3878 28.9454 18 25.9998 18C23.0543 18 20.6665 20.3878 20.6665 23.3333ZM33.9998 28.6667C33.9998 30.8758 35.7907 32.6667 37.9998 32.6667C40.209 32.6667 41.9998 30.8758 41.9998 28.6667C41.9998 26.4575 40.209 24.6667 37.9998 24.6667C35.7907 24.6667 33.9998 26.4575 33.9998 28.6667Z" fill="#214539"/>
<path fill-rule="evenodd" clip-rule="evenodd" d="M25.9778 31.3334C19.6826 31.3334 14.5177 34.5687 14.0009 40.9323C13.9727 41.2789 14.6356 42 14.97 42H36.9956C37.9972 42 38.0128 41.194 37.9972 40.9334C37.6065 34.391 32.3616 31.3334 25.9778 31.3334ZM45.2746 42L40.1333 42C40.1333 38.9988 39.1417 36.2292 37.4683 34.0009C42.0103 34.0505 45.7189 36.3469 45.998 41.2C46.0092 41.3955 45.998 42 45.2746 42Z" fill="#214539"/>
</svg>
